<svg xmlns="http://www.w3.org/2000/svg" width="26" height="26" id="weather">
  <path d="M13 0C5.827 0 0 5.82 0 13s5.827 13 13 13 13-5.82 13-13S20.173 0 13 0zm0 .75C19.763.75 25.25 6.231 25.25 13S19.763 25.219 13 25.219.75 19.769.75 13C.75 6.231 6.237.75 13 .75zm-.219 6.719a.524.524 0 0 0-.344.281.507.507 0 0 0 .063.563c1.089 1.408 1.275 3.307.469 4.843a4.563 4.563 0 0 1-4.406 2.406.484.484 0 0 0-.5.25.518.518 0 0 0 .03.563c.52.748 1.26 1.267 1.813 1.563a5.608 5.608 0 0 0 2.531.593c2.081 0 3.996-1.12 4.97-2.968a5.61 5.61 0 0 0 .343-4.25A5.424 5.424 0 0 0 15 8.092c-.713-.357-1.402-.579-2.031-.624a.726.726 0 0 0-.188 0zm1.25 1.343c.168.066.328.134.5.22 1.054.535 1.826 1.477 2.188 2.624.362 1.146.288 2.35-.25 3.406a4.55 4.55 0 0 1-4.032 2.407c-.716 0-1.4-.148-2.03-.469a5.148 5.148 0 0 1-.657-.406 5.587 5.587 0 0 0 4.156-2.938 5.514 5.514 0 0 0 .125-4.844z" color="#000" font-family="Sans" font-weight="400" overflow="visible" style="text-indent:0;text-align:start;line-height:normal;text-transform:none;block-progression:tb;marker:none;-inkscape-font-specification:Sans"></path>
</svg>
