<svg xmlns="http://www.w3.org/2000/svg" width="26" height="26" id="weather">
  <path d="M13 0C5.826 0 0 5.826 0 13s5.826 13 13 13 13-5.826 13-13S20.174 0 13 0zm0 .969A12.02 12.02 0 0 1 25.031 13c0 6.654-5.377 12.063-12.031 12.063C6.346 25.063.969 19.652.969 13A12.02 12.02 0 0 1 13 .969zm0 5.218c-.193 0-.344.183-.344.375v1.282c0 .193.151.375.344.375.193 0 .344-.182.344-.375V6.562c0-.192-.151-.375-.344-.375zM8.437 8.095a.384.384 0 0 0-.25.125c-.133.138-.138.334 0 .469l.938.906a.358.358 0 0 0 .25.094.334.334 0 0 0 .25-.094.356.356 0 0 0 0-.5l-.938-.906a.348.348 0 0 0-.25-.094zm9.157 0a.344.344 0 0 0-.25.094l-.938.906a.356.356 0 0 0 0 .5.333.333 0 0 0 .25.094v.03c.088 0 .182-.058.25-.124l.938-.906c.139-.136.134-.33 0-.47a.375.375 0 0 0-.25-.124zM13 9.219a3.624 3.624 0 0 0-3.625 3.625c0 2.018 1.621 3.687 3.625 3.687 2.02 0 3.656-1.67 3.656-3.687 0-2.001-1.636-3.625-3.656-3.625zm0 .719c1.633 0 2.969 1.29 2.969 2.906A2.979 2.979 0 0 1 13 15.813c-1.619 0-2.938-1.338-2.938-2.97 0-1.614 1.319-2.905 2.938-2.905zm-6.469 2.718a.34.34 0 0 0-.343.344c0 .193.15.344.343.344h1.313A.34.34 0 0 0 8.187 13a.34.34 0 0 0-.343-.344H6.53zm11.657 0a.34.34 0 0 0-.344.344c0 .193.15.344.343.344h1.282a.34.34 0 0 0 .343-.344.34.34 0 0 0-.343-.344h-1.282zm-1.532 3.625a.38.38 0 0 0-.25.125.355.355 0 0 0 0 .5l.938.907a.358.358 0 0 0 .25.093c.09 0 .18-.054.25-.125.135-.139.139-.334 0-.468l-.938-.907c-.07-.067-.16-.127-.25-.125zm-7.406.032a.44.44 0 0 0-.125.093l-.938.907a.356.356 0 0 0 0 .5c.069.07.16.093.25.093a.363.363 0 0 0 .25-.093l.938-.907a.356.356 0 0 0 0-.5.346.346 0 0 0-.375-.093zM13 17.78c-.193 0-.344.182-.344.375v1.282c0 .193.151.375.344.375.193 0 .344-.181.344-.375v-1.282c0-.193-.151-.375-.344-.375z" color="#000" font-family="Sans" font-weight="400" overflow="visible" style="text-indent:0;text-align:start;line-height:normal;text-transform:none;block-progression:tb;marker:none;-inkscape-font-specification:Sans"></path>
</svg>
